# xmcd
#
# Track frame offsets: 
#        150
#        20088
#        35378
#        51604
#        71561
#        96735
#        110033
#        126705
#        147730
#        164008
#        182686
#        200533
#        220533
#
# Disc length: 3125 seconds
#
# Revision: 1
# Processed by: cddbd v1.5.2PL0 Copyright (c) Steve Scherf et al.
# Submitted via: ExactAudioCopy v0.95b4
#
DISCID=dc0c330d
DTITLE=Blues Company feat. The Fabulous B.C. Horns - Invitation To The
DTITLE=Blues
DYEAR=2000
DGENRE=Blues
TTITLE0=Havin' A Ball
TTITLE1=Invitation To The Blues
TTITLE2=Drivin' Through Texas
TTITLE3=747
TTITLE4=Jet Set Shuffle
TTITLE5=Good Man Bad
TTITLE6=Run Your Finger Through My Hair
TTITLE7=Warm Night In June
TTITLE8=Fine! Fine! Fine!
TTITLE9=What Love Can Do
TTITLE10=Same Old Feeling
TTITLE11=Goin' Down
TTITLE12=My Little Angel
EXTD=YEAR: 2000 ID3G: 0
EXTT0=
EXTT1=
EXTT2=
EXTT3=
EXTT4=
EXTT5=
EXTT6=
EXTT7=
EXTT8=
EXTT9=
EXTT10=
EXTT11=
EXTT12=
PLAYORDER=
